<svg width="78" height="48" viewBox="0 0 78 48" fill="none" xmlns="http://www.w3.org/2000/svg">
<path d="M39.1541 22.5721C39.2071 22.7708 39.2336 22.9762 39.2336 23.1916C39.2336 23.5262 39.1044 23.8642 38.8526 24.1955C38.6538 24.4539 38.2827 24.762 37.64 24.762C36.9707 24.762 36.6229 24.434 36.444 24.1557C36.275 23.8907 36.0994 23.5295 35.9072 23.0491L28.1513 4.5058L20.3258 23.0657C20.1535 23.5461 19.9912 23.9072 19.8321 24.1656C19.6632 24.4373 19.3153 24.7587 18.6195 24.7587C18.1922 24.7587 17.8078 24.593 17.5163 24.2816C17.2314 23.9768 17.0856 23.6289 17.0856 23.2512C17.0856 23.0293 17.1121 22.8238 17.1651 22.6383C17.2115 22.4793 25.9978 1.64329 26.1469 1.28548L26.1601 1.25897C26.5213 0.513524 27.2866 0 28.1712 0C29.1187 0 29.9304 0.589725 30.2551 1.42462L30.2849 1.49751L38.8658 21.7802C39.0116 22.1413 39.1077 22.3998 39.1541 22.5721ZM77.4102 22.5721C77.3639 22.3998 77.2711 22.1413 77.122 21.7802L68.5412 1.49751L68.5113 1.42462C68.1866 0.589725 67.3783 0 66.4274 0C65.5428 0 64.7775 0.513524 64.4163 1.25897L64.4031 1.28548C64.254 1.64661 55.4677 22.4826 55.4213 22.6383C55.3683 22.8238 55.3418 23.0293 55.3418 23.2512C55.3418 23.6289 55.4876 23.9768 55.7725 24.2816C56.0641 24.593 56.4451 24.7587 56.8758 24.7587C57.5715 24.7587 57.9194 24.4373 58.0883 24.1656C58.2474 23.9072 58.413 23.5461 58.582 23.0657L66.4075 4.5058L74.1635 23.0491C74.3556 23.5295 74.5312 23.8907 74.7002 24.1557C74.8758 24.4307 75.2269 24.762 75.8962 24.762C76.5389 24.762 76.91 24.4539 77.1088 24.1955C77.3606 23.8642 77.4898 23.5262 77.4898 23.1916C77.4898 22.9762 77.4633 22.7675 77.4102 22.5721ZM51.608 21.6344C51.6013 21.6344 51.5947 21.6378 51.5881 21.6378V21.6344H44.5478L44.5312 13.3584L44.5544 10.2308V1.56378C44.5511 0.705688 43.852 0.00993885 42.9906 0.00993885C42.1292 0.00993885 41.4268 0.709 41.4268 1.57372C41.4268 1.58034 41.4302 1.58697 41.4302 1.59359H41.4268V23.2015C41.4268 24.0663 42.1259 24.7653 42.9906 24.7653C43.0602 24.7653 43.1463 24.7753 43.2126 24.7653H46.1215H51.6212C52.4793 24.762 53.175 24.0629 53.175 23.2015C53.1717 22.3335 52.4727 21.6344 51.608 21.6344ZM14.2098 13.905C14.4583 13.905 14.6074 14.1336 14.508 14.3622L11.2778 22.5687C11.1485 22.8669 11.1088 23.2082 11.1949 23.5693C11.3341 24.1391 11.7979 24.593 12.3711 24.7123C13.143 24.8746 13.8355 24.4704 14.127 23.841L14.1303 23.8443L14.1469 23.8045C14.1502 23.7979 14.1502 23.7946 14.1535 23.788L18.4241 13.143V13.1397C18.6262 12.6427 18.6262 12.0861 18.4241 11.5892L14.18 1.02043L14.1734 1.00718C14.1701 0.997242 14.1635 0.99061 14.1601 0.980671C14.1502 0.957479 14.1369 0.93429 14.127 0.911099C14.0972 0.84815 14.0674 0.791825 14.0309 0.732189C14.0144 0.705684 13.9978 0.682492 13.9812 0.659301C13.9415 0.602978 13.8984 0.553282 13.852 0.503585C13.8354 0.48702 13.8222 0.46714 13.8023 0.450575C13.7361 0.387626 13.6698 0.331307 13.5936 0.278298C13.5804 0.268359 13.5638 0.261727 13.5472 0.251788C13.4843 0.212031 13.4213 0.175594 13.3518 0.145777C13.3252 0.132524 13.2987 0.122583 13.2689 0.112644C13.206 0.0894521 13.143 0.069576 13.0768 0.0530106C13.0503 0.0463844 13.0204 0.0397591 12.9939 0.0331329C12.9012 0.0165675 12.8084 0.00330621 12.709 0.00330621C12.709 0.00330621 12.709 0.00330621 12.7057 0.00330621C12.159 0.00330621 11.6786 0.288236 11.397 0.712311C11.2347 0.95748 11.1419 1.24903 11.1419 1.56708C11.1419 1.66979 11.1519 1.7725 11.1717 1.86858C11.1717 1.8752 11.1751 1.88183 11.1751 1.88515C11.1949 1.9746 11.2214 2.06405 11.2579 2.14687C11.2645 2.15681 11.2678 2.17007 11.2711 2.18001L14.5047 10.3733L14.5146 10.3998C14.5213 10.4263 14.5246 10.4528 14.5246 10.4793C14.5246 10.6383 14.3954 10.7675 14.2363 10.7675H3.12755V1.55714C3.12424 0.699055 2.42519 0.00330621 1.56379 0.00330621C0.702385 0.00330621 0 0.702368 0 1.56708C0 1.57371 0.00331632 1.58034 0.00331632 1.58697H0V23.1287C0 23.9834 0.659307 24.7322 1.51408 24.7554C2.39868 24.7819 3.12424 24.0729 3.12424 23.1949L3.10106 13.8984H14.2098V13.905Z" fill="#1C202B"/>
<path d="M8.16668 31.4043C10.1479 31.4043 11.8773 32.0768 13.3484 33.4253L12.3942 34.5418C11.2479 33.4253 9.83648 32.8687 8.16337 32.8687C6.47369 32.8687 4.96955 33.5247 3.64431 34.8333C2.31908 36.142 1.65646 37.7654 1.65646 39.7036C1.65646 41.6417 2.31908 43.2618 3.64431 44.5705C4.96955 45.8792 6.47701 46.5352 8.16337 46.5352C9.83648 46.5352 11.2445 45.9786 12.3942 44.862L13.3715 45.9554C11.884 47.317 10.1479 47.9995 8.16668 47.9995C6.80169 47.9995 5.50295 47.655 4.26386 46.9659C3.02476 46.2767 2.00434 45.2894 1.2092 44.004C0.410749 42.7185 0.0131836 41.2839 0.0131836 39.7036C0.0131836 38.1232 0.410749 36.6887 1.2092 35.4032C2.00766 34.1177 3.02476 33.1304 4.26386 32.4413C5.50295 31.7488 6.80501 31.4043 8.16668 31.4043Z" fill="#1C202B"/>
<path d="M20.3223 35.6094C21.2996 35.6094 22.1842 35.8446 22.9826 36.3184C23.7811 36.7922 24.3642 37.4448 24.7386 38.283V35.7485H26.2494V47.8347H24.7386V45.3001C24.351 46.135 23.7579 46.7944 22.9595 47.2748C22.161 47.7552 21.283 47.9937 20.3223 47.9937C18.8811 47.9937 17.5658 47.4437 16.3731 46.3438C15.1803 45.2438 14.584 43.7331 14.584 41.8115C14.584 40.8209 14.7629 39.9164 15.1174 39.1047C15.4752 38.2897 15.9357 37.637 16.499 37.14C17.0655 36.6431 17.6751 36.2654 18.3344 36.0003C18.9937 35.7419 19.6563 35.6094 20.3223 35.6094ZM23.4697 38.1903C22.595 37.3521 21.5978 36.9346 20.4846 36.9346C19.3681 36.9346 18.3576 37.3653 17.4531 38.2234C16.5453 39.0815 16.0948 40.2808 16.0948 41.8148C16.0948 43.3322 16.5486 44.5183 17.4531 45.3697C18.3609 46.2212 19.3714 46.6486 20.4846 46.6486C21.6011 46.6486 22.595 46.2344 23.4697 45.4062C24.3443 44.5779 24.7817 43.3819 24.7817 41.8148C24.785 40.2344 24.3443 39.0252 23.4697 38.1903Z" fill="#1C202B"/>
<path d="M35.2876 38.4454C34.6979 37.4216 33.8232 36.9114 32.6603 36.9114C32.0077 36.9114 31.4776 37.0837 31.0701 37.4216C30.6592 37.7629 30.4538 38.1737 30.4538 38.6541C30.4538 39.1047 30.593 39.4791 30.8713 39.7806C31.1496 40.082 31.6466 40.357 32.3589 40.6055L33.5217 41.023C34.731 41.4404 35.6289 41.9042 36.2186 42.4045C36.8083 42.9081 37.0999 43.6337 37.0999 44.5779C37.0999 45.6016 36.6559 46.4266 35.7647 47.0528C34.8735 47.6789 33.8696 47.9937 32.7564 47.9937C31.7194 47.9937 30.7653 47.7088 29.8972 47.1323C29.0292 46.5591 28.4726 45.8004 28.2241 44.8562L29.5725 44.5083C29.7581 45.1577 30.159 45.6812 30.7686 46.0754C31.3815 46.4697 32.0507 46.6685 32.7796 46.6685C33.4919 46.6685 34.1314 46.4796 34.6979 46.0986C35.2644 45.7176 35.5461 45.2107 35.5461 44.5746C35.5461 44.0312 35.3572 43.5873 34.9762 43.2394C34.5952 42.8915 34.0353 42.5834 33.2898 42.3217L31.9414 41.8347C30.8415 41.4636 30.0596 41.0296 29.5957 40.5326C29.1319 40.0357 28.9 39.4161 28.9 38.674C28.9 37.806 29.2644 37.0771 29.9933 36.4907C30.7222 35.9009 31.6035 35.6094 32.6438 35.6094C34.5024 35.6094 35.8442 36.4376 36.6626 38.0975L35.2876 38.4454Z" fill="#1C202B"/>
<path d="M45.187 35.6329C46.4725 35.6329 47.5691 36.0603 48.4736 36.9118C49.3814 37.7632 49.832 39.0587 49.832 40.7914V47.8317H48.3212V40.7914C48.3212 39.5059 48.0064 38.5451 47.3803 37.909C46.7541 37.2729 45.9358 36.9548 44.9286 36.9548C43.875 36.9548 42.944 37.3491 42.139 38.1409C41.3339 38.9294 40.8535 39.7842 40.6978 40.6953V47.8317H39.187V31.5645H40.6978V38.7936C40.8071 38.1575 41.2776 37.4717 42.1158 36.7362C42.9573 36.0007 43.9777 35.6329 45.187 35.6329Z" fill="#1C202B"/>
<path d="M54.2517 33.0076H52.7178V31.5664H54.2517V33.0076ZM54.2517 47.8337H52.7178V35.7508H54.2517V47.8337Z" fill="#1C202B"/>
<path d="M62.6175 35.6094C64.0885 35.6094 65.4303 36.1594 66.6362 37.2593C67.8455 38.3592 68.4485 39.87 68.4485 41.7916C68.4485 41.9473 68.4319 42.1494 68.4021 42.3946H58.3403C58.433 43.743 58.9167 44.7899 59.7914 45.5321C60.666 46.2742 61.6235 46.6486 62.6605 46.6486C64.0719 46.6486 65.2182 46.1516 66.0995 45.161L67.3088 45.9031C66.1459 47.2979 64.5987 47.9937 62.6605 47.9937C61.9946 47.9937 61.322 47.8612 60.6395 47.5994C59.957 47.3377 59.3275 46.96 58.7444 46.473C58.1647 45.986 57.6909 45.33 57.3265 44.5083C56.962 43.6867 56.7798 42.7822 56.7798 41.7883C56.7798 40.7977 56.962 39.8932 57.3265 39.0815C57.6909 38.2665 58.158 37.6171 58.7312 37.1301C59.3044 36.6431 59.9272 36.2654 60.6031 36.0036C61.2789 35.7419 61.9515 35.6094 62.6175 35.6094ZM62.6175 36.9578C61.5937 36.9578 60.6561 37.3222 59.8046 38.0511C58.9532 38.78 58.4662 39.8236 58.3403 41.1886H66.9377C66.8118 39.8269 66.3215 38.78 65.4601 38.0511C64.602 37.3222 63.6545 36.9578 62.6175 36.9578Z" fill="#1C202B"/>
<path d="M76.6516 35.6328C76.8371 35.6328 77.1154 35.6494 77.4865 35.6792V37.0508C77.2844 37.0342 76.9994 37.0276 76.6284 37.0276C75.4356 37.0442 74.4484 37.4384 73.6665 38.2137C72.8846 38.989 72.3909 40.0823 72.1921 41.4903V47.8349H70.6582V35.7488H72.1921V39.4197C72.3313 38.3827 72.7951 37.4915 73.587 36.746C74.3755 36.0072 75.3992 35.6328 76.6516 35.6328Z" fill="#1C202B"/>
</svg>
